<svg xmlns="http://www.w3.org/2000/svg" viewBox="0 0 1000 720" width="1000" height="720">
  <defs>
    <linearGradient id="aGr" x1="0%" y1="100%" x2="100%" y2="0%">
      <stop offset="0%" style="stop-color:#1a3a6b"/>
      <stop offset="50%" style="stop-color:#0ea5e9"/>
      <stop offset="100%" style="stop-color:#22d3ee"/>
    </linearGradient>
    <filter id="aSh">
      <feDropShadow dx="0" dy="2" stdDeviation="6" flood-color="#94a3b8" flood-opacity="0.12"/>
    </filter>
  </defs>

  <rect width="1000" height="720" rx="16" fill="#f8fafc"/>

  <!-- Title -->
  <text x="500" y="40" text-anchor="middle" font-family="'SF Pro Display','Inter',sans-serif" font-size="20" font-weight="800" letter-spacing="1" fill="#0f172a">Architecture</text>
  <rect x="420" y="50" width="160" height="2" rx="1" fill="#0ea5e9" opacity="0.3"/>

  <!-- Layer 1: AI Clients -->
  <rect x="60" y="72" width="880" height="64" rx="14" fill="#fff" stroke="#e2e8f0" stroke-width="1" filter="url(#aSh)"/>
  <text x="500" y="92" text-anchor="middle" font-family="'SF Pro Text','Inter',sans-serif" font-size="10" font-weight="600" letter-spacing="1.5" fill="#94a3b8">AI CLIENT LAYER</text>
  <g font-family="'SF Pro Text','Inter',sans-serif" font-size="12" font-weight="600">
    <rect x="170" y="102" width="88" height="24" rx="12" fill="#8b5cf6" fill-opacity="0.08" stroke="#8b5cf6" stroke-width="0.7"/>
    <text x="214" y="118" text-anchor="middle" fill="#8b5cf6">Claude</text>
    <rect x="270" y="102" width="70" height="24" rx="12" fill="#22c55e" fill-opacity="0.08" stroke="#22c55e" stroke-width="0.7"/>
    <text x="305" y="118" text-anchor="middle" fill="#16a34a">GPT</text>
    <rect x="352" y="102" width="82" height="24" rx="12" fill="#0ea5e9" fill-opacity="0.08" stroke="#0ea5e9" stroke-width="0.7"/>
    <text x="393" y="118" text-anchor="middle" fill="#0ea5e9">Gemini</text>
    <rect x="446" y="102" width="98" height="24" rx="12" fill="#f59e0b" fill-opacity="0.08" stroke="#f59e0b" stroke-width="0.7"/>
    <text x="495" y="118" text-anchor="middle" fill="#d97706">OpenCode</text>
    <rect x="556" y="102" width="130" height="24" rx="12" fill="#64748b" fill-opacity="0.08" stroke="#94a3b8" stroke-width="0.7"/>
    <text x="621" y="118" text-anchor="middle" fill="#64748b">Any MCP Client</text>
  </g>

  <!-- Arrow -->
  <line x1="500" y1="136" x2="500" y2="162" stroke="#cbd5e1" stroke-width="1.5"/>
  <polygon points="496,160 500,168 504,160" fill="#cbd5e1"/>
  <text x="530" y="155" font-family="'SF Mono',monospace" font-size="9" fill="#94a3b8">JSON-RPC / stdio</text>

  <!-- Layer 2: MCP Server -->
  <rect x="160" y="170" width="680" height="88" rx="14" fill="#fff" stroke="#0ea5e9" stroke-width="1.2" filter="url(#aSh)"/>
  <text x="500" y="196" text-anchor="middle" font-family="'SF Pro Display','Inter',sans-serif" font-size="15" font-weight="800" letter-spacing="1" fill="#0f172a">CAPVIC MCP SERVER</text>
  <g font-family="'SF Mono',monospace" font-size="10" fill="#64748b">
    <text x="260" y="216" text-anchor="middle">FastMCP</text>
    <text x="370" y="216" text-anchor="middle">29 Tools</text>
    <text x="500" y="216" text-anchor="middle">Pydantic Models</text>
    <text x="650" y="216" text-anchor="middle">NLP Normalization</text>
  </g>
  <g font-family="'SF Mono',monospace" font-size="9">
    <rect x="300" y="228" width="68" height="18" rx="9" fill="#0ea5e9" fill-opacity="0.08" stroke="#0ea5e9" stroke-width="0.6"/>
    <text x="334" y="240" text-anchor="middle" fill="#0ea5e9">Markdown</text>
    <rect x="378" y="228" width="50" height="18" rx="9" fill="#22c55e" fill-opacity="0.08" stroke="#22c55e" stroke-width="0.6"/>
    <text x="403" y="240" text-anchor="middle" fill="#16a34a">JSON</text>
    <rect x="438" y="228" width="50" height="18" rx="9" fill="#f59e0b" fill-opacity="0.08" stroke="#f59e0b" stroke-width="0.6"/>
    <text x="463" y="240" text-anchor="middle" fill="#d97706">Text</text>
  </g>

  <!-- Arrows to 4 modules -->
  <line x1="290" y1="258" x2="160" y2="295" stroke="#cbd5e1" stroke-width="1"/>
  <line x1="410" y1="258" x2="390" y2="295" stroke="#cbd5e1" stroke-width="1"/>
  <line x1="590" y1="258" x2="610" y2="295" stroke="#cbd5e1" stroke-width="1"/>
  <line x1="710" y1="258" x2="840" y2="295" stroke="#cbd5e1" stroke-width="1"/>

  <!-- Module 1: Classification -->
  <rect x="20" y="298" width="230" height="130" rx="14" fill="#fff" stroke="#f59e0b" stroke-width="1" filter="url(#aSh)"/>
  <text x="135" y="322" text-anchor="middle" font-family="'SF Pro Display','Inter',sans-serif" font-size="12" font-weight="700" fill="#d97706">CLASSIFICATION</text>
  <g font-family="'SF Mono',monospace" font-size="10" fill="#475569">
    <rect x="35" y="336" width="200" height="22" rx="4" fill="#f59e0b" fill-opacity="0.05"/>
    <text x="135" y="351" text-anchor="middle">AMP/ASCO/CAP 4-Tier</text>
    <rect x="35" y="364" width="200" height="22" rx="4" fill="#f59e0b" fill-opacity="0.05"/>
    <text x="135" y="379" text-anchor="middle">Oncogenicity SOP (18 codes)</text>
    <rect x="35" y="392" width="200" height="22" rx="4" fill="#f59e0b" fill-opacity="0.05"/>
    <text x="135" y="407" text-anchor="middle">ACMG/AMP 5-Tier</text>
  </g>

  <!-- Module 2: Utilities -->
  <rect x="268" y="298" width="230" height="130" rx="14" fill="#fff" stroke="#8b5cf6" stroke-width="1" filter="url(#aSh)"/>
  <text x="383" y="322" text-anchor="middle" font-family="'SF Pro Display','Inter',sans-serif" font-size="12" font-weight="700" fill="#7c3aed">UTILITIES</text>
  <g font-family="'SF Mono',monospace" font-size="10" fill="#475569">
    <rect x="283" y="336" width="200" height="22" rx="4" fill="#8b5cf6" fill-opacity="0.05"/>
    <text x="383" y="351" text-anchor="middle">HGVS Normalizer</text>
    <rect x="283" y="364" width="200" height="22" rx="4" fill="#8b5cf6" fill-opacity="0.05"/>
    <text x="383" y="379" text-anchor="middle">In-silico (PP3/BP4)</text>
    <rect x="283" y="392" width="200" height="22" rx="4" fill="#8b5cf6" fill-opacity="0.05"/>
    <text x="383" y="407" text-anchor="middle">Report Formatters</text>
  </g>

  <!-- Module 3: Driver Analysis -->
  <rect x="516" y="298" width="230" height="130" rx="14" fill="#fff" stroke="#ef4444" stroke-width="1" filter="url(#aSh)"/>
  <text x="631" y="322" text-anchor="middle" font-family="'SF Pro Display','Inter',sans-serif" font-size="12" font-weight="700" fill="#dc2626">DRIVER ANALYSIS</text>
  <g font-family="'SF Mono',monospace" font-size="10" fill="#475569">
    <rect x="531" y="336" width="200" height="22" rx="4" fill="#ef4444" fill-opacity="0.05"/>
    <text x="631" y="351" text-anchor="middle">Cancer Hotspot Lookup</text>
    <rect x="531" y="364" width="200" height="22" rx="4" fill="#ef4444" fill-opacity="0.05"/>
    <text x="631" y="379" text-anchor="middle">7-Signal Driver Scoring</text>
    <rect x="531" y="392" width="200" height="22" rx="4" fill="#ef4444" fill-opacity="0.05"/>
    <text x="631" y="407" text-anchor="middle">LitVar2 Literature Mining</text>
  </g>

  <!-- Module 4: Clients -->
  <rect x="764" y="298" width="216" height="130" rx="14" fill="#fff" stroke="#0ea5e9" stroke-width="1" filter="url(#aSh)"/>
  <text x="872" y="322" text-anchor="middle" font-family="'SF Pro Display','Inter',sans-serif" font-size="12" font-weight="700" fill="#0ea5e9">API CLIENTS</text>
  <g font-family="'SF Mono',monospace" font-size="10" fill="#475569">
    <rect x="779" y="336" width="186" height="22" rx="4" fill="#0ea5e9" fill-opacity="0.05"/>
    <text x="872" y="351" text-anchor="middle">Rate-limited HTTP/GQL</text>
    <rect x="779" y="364" width="186" height="22" rx="4" fill="#0ea5e9" fill-opacity="0.05"/>
    <text x="872" y="379" text-anchor="middle">Async httpx + Retry</text>
    <rect x="779" y="392" width="186" height="22" rx="4" fill="#0ea5e9" fill-opacity="0.05"/>
    <text x="872" y="407" text-anchor="middle">Pydantic Parsing</text>
  </g>

  <!-- Arrow to data sources -->
  <line x1="500" y1="430" x2="500" y2="460" stroke="#cbd5e1" stroke-width="1.5"/>
  <polygon points="496,458 500,466 504,458" fill="#cbd5e1"/>

  <!-- Layer 4: Data Sources — 10 sources in 2 rows of 5 -->
  <rect x="20" y="470" width="960" height="220" rx="14" fill="#fff" stroke="#e2e8f0" stroke-width="1" filter="url(#aSh)"/>
  <text x="500" y="495" text-anchor="middle" font-family="'SF Pro Text','Inter',sans-serif" font-size="10" font-weight="600" letter-spacing="1.5" fill="#94a3b8">10 EXTERNAL DATA SOURCES</text>

  <!-- Source cards Row 1 (5 sources) -->
  <g font-family="'SF Pro Display','Inter',sans-serif">
    <rect x="40" y="510" width="172" height="44" rx="10" fill="#0ea5e9" fill-opacity="0.06" stroke="#0ea5e9" stroke-width="0.7"/>
    <text x="126" y="530" text-anchor="middle" font-size="13" font-weight="700" fill="#0ea5e9">CIViC</text>
    <text x="126" y="545" text-anchor="middle" font-family="'SF Mono',monospace" font-size="8" fill="#94a3b8">GraphQL v2 | Evidence</text>

    <rect x="228" y="510" width="172" height="44" rx="10" fill="#22c55e" fill-opacity="0.06" stroke="#22c55e" stroke-width="0.7"/>
    <text x="314" y="530" text-anchor="middle" font-size="13" font-weight="700" fill="#16a34a">ClinVar</text>
    <text x="314" y="545" text-anchor="middle" font-family="'SF Mono',monospace" font-size="8" fill="#94a3b8">E-utilities | VCV XML</text>

    <rect x="416" y="510" width="172" height="44" rx="10" fill="#f59e0b" fill-opacity="0.06" stroke="#f59e0b" stroke-width="0.7"/>
    <text x="502" y="530" text-anchor="middle" font-size="13" font-weight="700" fill="#d97706">OncoKB</text>
    <text x="502" y="545" text-anchor="middle" font-family="'SF Mono',monospace" font-size="8" fill="#94a3b8">REST | Token Auth</text>

    <rect x="604" y="510" width="172" height="44" rx="10" fill="#ef4444" fill-opacity="0.06" stroke="#ef4444" stroke-width="0.7"/>
    <text x="690" y="530" text-anchor="middle" font-size="13" font-weight="700" fill="#dc2626">VICC MetaKB</text>
    <text x="690" y="545" text-anchor="middle" font-family="'SF Mono',monospace" font-size="8" fill="#94a3b8">Harmonized | 6 KBs</text>

    <rect x="792" y="510" width="172" height="44" rx="10" fill="#8b5cf6" fill-opacity="0.06" stroke="#8b5cf6" stroke-width="0.7"/>
    <text x="878" y="530" text-anchor="middle" font-size="13" font-weight="700" fill="#7c3aed">gnomAD</text>
    <text x="878" y="545" text-anchor="middle" font-family="'SF Mono',monospace" font-size="8" fill="#94a3b8">GraphQL v4 | GRCh37/38</text>

    <!-- Row 2 (5 sources) -->
    <rect x="40" y="564" width="172" height="44" rx="10" fill="#14b8a6" fill-opacity="0.06" stroke="#14b8a6" stroke-width="0.7"/>
    <text x="126" y="584" text-anchor="middle" font-size="13" font-weight="700" fill="#0d9488">UniProt</text>
    <text x="126" y="599" text-anchor="middle" font-family="'SF Mono',monospace" font-size="8" fill="#94a3b8">REST | Protein Domains</text>

    <rect x="228" y="564" width="172" height="44" rx="10" fill="#ec4899" fill-opacity="0.06" stroke="#ec4899" stroke-width="0.7"/>
    <text x="314" y="584" text-anchor="middle" font-size="13" font-weight="700" fill="#db2777">PubMed</text>
    <text x="314" y="599" text-anchor="middle" font-family="'SF Mono',monospace" font-size="8" fill="#94a3b8">E-utilities | Literature</text>

    <rect x="416" y="564" width="172" height="44" rx="10" fill="#f97316" fill-opacity="0.06" stroke="#f97316" stroke-width="0.7"/>
    <text x="502" y="584" text-anchor="middle" font-size="13" font-weight="700" fill="#ea580c">MyVariant.info</text>
    <text x="502" y="599" text-anchor="middle" font-family="'SF Mono',monospace" font-size="8" fill="#94a3b8">REST | SIFT/REVEL/CADD</text>

    <rect x="604" y="564" width="172" height="44" rx="10" fill="#dc2626" fill-opacity="0.06" stroke="#dc2626" stroke-width="0.7"/>
    <text x="690" y="584" text-anchor="middle" font-size="13" font-weight="700" fill="#dc2626">Cancer Hotspots</text>
    <text x="690" y="599" text-anchor="middle" font-family="'SF Mono',monospace" font-size="8" fill="#94a3b8">POST | Somatic Recurrence</text>

    <rect x="792" y="564" width="172" height="44" rx="10" fill="#6366f1" fill-opacity="0.06" stroke="#6366f1" stroke-width="0.7"/>
    <text x="878" y="584" text-anchor="middle" font-size="13" font-weight="700" fill="#4f46e5">LitVar2</text>
    <text x="878" y="599" text-anchor="middle" font-family="'SF Mono',monospace" font-size="8" fill="#94a3b8">REST | NLP Literature</text>
  </g>

  <!-- Framework badges -->
  <g font-family="'SF Mono',monospace" font-size="8.5">
    <rect x="120" y="625" width="140" height="22" rx="11" fill="#f59e0b" fill-opacity="0.08" stroke="#f59e0b" stroke-width="0.5"/>
    <text x="190" y="640" text-anchor="middle" fill="#d97706">AMP/ASCO/CAP</text>
    <rect x="280" y="625" width="160" height="22" rx="11" fill="#8b5cf6" fill-opacity="0.08" stroke="#8b5cf6" stroke-width="0.5"/>
    <text x="360" y="640" text-anchor="middle" fill="#7c3aed">Oncogenicity SOP</text>
    <rect x="460" y="625" width="120" height="22" rx="11" fill="#22c55e" fill-opacity="0.08" stroke="#22c55e" stroke-width="0.5"/>
    <text x="520" y="640" text-anchor="middle" fill="#16a34a">ACMG/AMP</text>
    <rect x="600" y="625" width="200" height="22" rx="11" fill="#dc2626" fill-opacity="0.08" stroke="#dc2626" stroke-width="0.5"/>
    <text x="700" y="640" text-anchor="middle" fill="#dc2626">Driver Mutation Cross-Ref</text>
  </g>

  <!-- Footer -->
  <text x="500" y="710" text-anchor="middle" font-family="'SF Mono',monospace" font-size="9" fill="#94a3b8">Vivax Teknoloji A.S. | MIT License | v1.0.6</text>
</svg>
