<svg xmlns="http://www.w3.org/2000/svg" viewBox="0 0 900 460" width="900" height="460">
  <defs>
    <filter id="tSh">
      <feDropShadow dx="0" dy="2" stdDeviation="6" flood-color="#94a3b8" flood-opacity="0.12"/>
    </filter>
  </defs>

  <rect width="900" height="460" rx="16" fill="#f8fafc"/>
  <text x="450" y="32" text-anchor="middle" font-family="'SF Pro Display','Inter',sans-serif" font-size="18" font-weight="800" letter-spacing="1" fill="#0f172a">26 MCP Tools</text>
  <rect x="350" y="40" width="200" height="2" rx="1" fill="#0ea5e9" opacity="0.25"/>

  <!-- Search & Discovery -->
  <rect x="20" y="58" width="270" height="180" rx="14" fill="#fff" stroke="#0ea5e9" stroke-width="0.8" filter="url(#tSh)"/>
  <text x="155" y="80" text-anchor="middle" font-family="'SF Pro Display','Inter',sans-serif" font-size="12" font-weight="700" fill="#0ea5e9">SEARCH &amp; DISCOVERY</text>
  <g font-family="'SF Mono',monospace" font-size="10" fill="#475569">
    <circle cx="40" cy="98" r="3" fill="#0ea5e9"/><text x="50" y="102">variant_search_evidence</text>
    <circle cx="40" cy="116" r="3" fill="#0ea5e9"/><text x="50" y="120">civic_search_evidence</text>
    <circle cx="40" cy="134" r="3" fill="#0ea5e9"/><text x="50" y="138">civic_search_assertions</text>
    <circle cx="40" cy="152" r="3" fill="#0ea5e9"/><text x="50" y="156">clinvar_search</text>
    <circle cx="40" cy="170" r="3" fill="#0ea5e9"/><text x="50" y="174">search_literature</text>
    <circle cx="40" cy="188" r="3" fill="#0ea5e9"/><text x="50" y="192">variant_compare_sources</text>
    <circle cx="40" cy="206" r="3" fill="#0ea5e9"/><text x="50" y="210">variant_pathogenicity_summary</text>
  </g>
  <rect x="235" y="218" width="38" height="14" rx="7" fill="#0ea5e9" fill-opacity="0.1"/>
  <text x="254" y="228" text-anchor="middle" font-family="'SF Mono',monospace" font-size="9" font-weight="600" fill="#0ea5e9">7</text>

  <!-- Classification -->
  <rect x="310" y="58" width="270" height="180" rx="14" fill="#fff" stroke="#8b5cf6" stroke-width="0.8" filter="url(#tSh)"/>
  <text x="445" y="80" text-anchor="middle" font-family="'SF Pro Display','Inter',sans-serif" font-size="12" font-weight="700" fill="#7c3aed">CLASSIFICATION</text>
  <g font-family="'SF Mono',monospace" font-size="10" fill="#475569">
    <circle cx="330" cy="98" r="3" fill="#8b5cf6"/><text x="340" y="102">classify_amp_tier</text>
    <circle cx="330" cy="116" r="3" fill="#8b5cf6"/><text x="340" y="120">score_oncogenicity</text>
    <circle cx="330" cy="134" r="3" fill="#8b5cf6"/><text x="340" y="138">variant_classify</text>
    <circle cx="330" cy="152" r="3" fill="#8b5cf6"/><text x="340" y="156">explain_acmg_criteria</text>
    <circle cx="330" cy="170" r="3" fill="#8b5cf6"/><text x="340" y="174">get_classification_frameworks_ref</text>
  </g>
  <rect x="525" y="184" width="38" height="14" rx="7" fill="#8b5cf6" fill-opacity="0.1"/>
  <text x="544" y="194" text-anchor="middle" font-family="'SF Mono',monospace" font-size="9" font-weight="600" fill="#8b5cf6">5</text>

  <!-- Annotation -->
  <rect x="600" y="58" width="280" height="180" rx="14" fill="#fff" stroke="#f59e0b" stroke-width="0.8" filter="url(#tSh)"/>
  <text x="740" y="80" text-anchor="middle" font-family="'SF Pro Display','Inter',sans-serif" font-size="12" font-weight="700" fill="#d97706">ANNOTATION</text>
  <g font-family="'SF Mono',monospace" font-size="10" fill="#475569">
    <circle cx="620" cy="98" r="3" fill="#f59e0b"/><text x="630" y="102">predict_variant_effect</text>
    <circle cx="620" cy="116" r="3" fill="#f59e0b"/><text x="630" y="120">lookup_gnomad_frequency</text>
    <circle cx="620" cy="134" r="3" fill="#f59e0b"/><text x="630" y="138">lookup_protein_domains</text>
    <circle cx="620" cy="152" r="3" fill="#f59e0b"/><text x="630" y="156">oncokb_annotate</text>
    <circle cx="620" cy="170" r="3" fill="#f59e0b"/><text x="630" y="174">oncokb_cancer_genes</text>
    <circle cx="620" cy="188" r="3" fill="#f59e0b"/><text x="630" y="192">normalize_variant</text>
  </g>
  <rect x="825" y="200" width="38" height="14" rx="7" fill="#f59e0b" fill-opacity="0.1"/>
  <text x="844" y="210" text-anchor="middle" font-family="'SF Mono',monospace" font-size="9" font-weight="600" fill="#d97706">6</text>

  <!-- Data Retrieval -->
  <rect x="20" y="258" width="270" height="175" rx="14" fill="#fff" stroke="#22c55e" stroke-width="0.8" filter="url(#tSh)"/>
  <text x="155" y="280" text-anchor="middle" font-family="'SF Pro Display','Inter',sans-serif" font-size="12" font-weight="700" fill="#16a34a">DATA RETRIEVAL</text>
  <g font-family="'SF Mono',monospace" font-size="10" fill="#475569">
    <circle cx="40" cy="298" r="3" fill="#22c55e"/><text x="50" y="302">civic_get_gene</text>
    <circle cx="40" cy="316" r="3" fill="#22c55e"/><text x="50" y="320">civic_get_variant</text>
    <circle cx="40" cy="334" r="3" fill="#22c55e"/><text x="50" y="338">civic_get_evidence_item</text>
    <circle cx="40" cy="352" r="3" fill="#22c55e"/><text x="50" y="356">clinvar_get_variant</text>
    <circle cx="40" cy="370" r="3" fill="#22c55e"/><text x="50" y="374">get_publication</text>
  </g>
  <rect x="235" y="386" width="38" height="14" rx="7" fill="#22c55e" fill-opacity="0.1"/>
  <text x="254" y="396" text-anchor="middle" font-family="'SF Mono',monospace" font-size="9" font-weight="600" fill="#16a34a">5</text>

  <!-- Discovery & Lookup -->
  <rect x="310" y="258" width="270" height="175" rx="14" fill="#fff" stroke="#ec4899" stroke-width="0.8" filter="url(#tSh)"/>
  <text x="445" y="280" text-anchor="middle" font-family="'SF Pro Display','Inter',sans-serif" font-size="12" font-weight="700" fill="#db2777">DISCOVERY &amp; LOOKUP</text>
  <g font-family="'SF Mono',monospace" font-size="10" fill="#475569">
    <circle cx="330" cy="298" r="3" fill="#ec4899"/><text x="340" y="302">lookup_gene</text>
    <circle cx="330" cy="316" r="3" fill="#ec4899"/><text x="340" y="320">lookup_disease</text>
    <circle cx="330" cy="334" r="3" fill="#ec4899"/><text x="340" y="338">lookup_therapy</text>
  </g>
  <rect x="525" y="348" width="38" height="14" rx="7" fill="#ec4899" fill-opacity="0.1"/>
  <text x="544" y="358" text-anchor="middle" font-family="'SF Mono',monospace" font-size="9" font-weight="600" fill="#db2777">3</text>

  <!-- All tools support -->
  <rect x="600" y="258" width="280" height="175" rx="14" fill="#fff" stroke="#94a3b8" stroke-width="0.8" filter="url(#tSh)"/>
  <text x="740" y="280" text-anchor="middle" font-family="'SF Pro Display','Inter',sans-serif" font-size="12" font-weight="700" fill="#475569">ALL TOOLS SUPPORT</text>
  <g font-family="'SF Mono',monospace" font-size="10.5">
    <rect x="620" y="295" width="240" height="28" rx="8" fill="#0ea5e9" fill-opacity="0.05" stroke="#0ea5e9" stroke-width="0.5"/>
    <text x="740" y="313" text-anchor="middle" fill="#0ea5e9">output_format="markdown"</text>
    <rect x="620" y="331" width="240" height="28" rx="8" fill="#22c55e" fill-opacity="0.05" stroke="#22c55e" stroke-width="0.5"/>
    <text x="740" y="349" text-anchor="middle" fill="#16a34a">output_format="json"</text>
    <rect x="620" y="367" width="240" height="28" rx="8" fill="#f59e0b" fill-opacity="0.05" stroke="#f59e0b" stroke-width="0.5"/>
    <text x="740" y="385" text-anchor="middle" fill="#d97706">output_format="text"</text>
  </g>
  <text x="740" y="413" text-anchor="middle" font-family="'SF Mono',monospace" font-size="9" fill="#94a3b8">NLP: 35+ disease + 40+ therapy aliases</text>

  <!-- Footer -->
  <text x="450" y="452" text-anchor="middle" font-family="'SF Mono',monospace" font-size="9" fill="#94a3b8">7 + 5 + 6 + 5 + 3 = 26 tools | Natural language discoverable</text>
</svg>
