<svg xmlns="http://www.w3.org/2000/svg" viewBox="0 0 900 480" width="900" height="480">
  <defs>
    <linearGradient id="toBg" x1="0%" y1="0%" x2="100%" y2="100%">
      <stop offset="0%" style="stop-color:#0f172a" />
      <stop offset="100%" style="stop-color:#1e293b" />
    </linearGradient>
    <filter id="toShadow">
      <feDropShadow dx="0" dy="1" stdDeviation="3" flood-color="#000" flood-opacity="0.25"/>
    </filter>
  </defs>

  <rect width="900" height="480" rx="12" fill="url(#toBg)"/>
  <text x="450" y="35" text-anchor="middle" font-family="'SF Pro Display',sans-serif" font-size="18" font-weight="700" letter-spacing="3" fill="#e2e8f0">26 MCP TOOLS</text>
  <rect x="330" y="43" width="240" height="1.5" rx="1" fill="#8b5cf6" opacity="0.4"/>

  <!-- Search & Discovery (cyan) -->
  <rect x="25" y="65" width="270" height="185" rx="10" fill="#1e293b" stroke="#06b6d4" stroke-width="1" filter="url(#toShadow)"/>
  <text x="160" y="88" text-anchor="middle" font-family="'SF Pro Display',sans-serif" font-size="12" font-weight="700" letter-spacing="1" fill="#22d3ee">SEARCH &amp; DISCOVERY</text>
  <g font-family="'SF Mono',monospace" font-size="9.5" fill="#94a3b8">
    <circle cx="45" cy="108" r="3" fill="#06b6d4"/>
    <text x="55" y="112">variant_search_evidence</text>
    <circle cx="45" cy="126" r="3" fill="#06b6d4"/>
    <text x="55" y="130">civic_search_evidence</text>
    <circle cx="45" cy="144" r="3" fill="#06b6d4"/>
    <text x="55" y="148">civic_search_assertions</text>
    <circle cx="45" cy="162" r="3" fill="#06b6d4"/>
    <text x="55" y="166">clinvar_search</text>
    <circle cx="45" cy="180" r="3" fill="#06b6d4"/>
    <text x="55" y="184">search_literature</text>
    <circle cx="45" cy="198" r="3" fill="#06b6d4"/>
    <text x="55" y="202">variant_compare_sources</text>
    <circle cx="45" cy="216" r="3" fill="#06b6d4"/>
    <text x="55" y="220">variant_pathogenicity_summary</text>
  </g>
  <rect x="45" y="231" width="42" height="14" rx="7" fill="#06b6d4" fill-opacity="0.2"/>
  <text x="66" y="241" text-anchor="middle" font-family="'SF Mono',monospace" font-size="8" fill="#06b6d4">7</text>

  <!-- Classification (violet) -->
  <rect x="315" y="65" width="270" height="185" rx="10" fill="#1e293b" stroke="#8b5cf6" stroke-width="1" filter="url(#toShadow)"/>
  <text x="450" y="88" text-anchor="middle" font-family="'SF Pro Display',sans-serif" font-size="12" font-weight="700" letter-spacing="1" fill="#c4b5fd">CLASSIFICATION</text>
  <g font-family="'SF Mono',monospace" font-size="9.5" fill="#94a3b8">
    <circle cx="335" cy="108" r="3" fill="#8b5cf6"/>
    <text x="345" y="112">classify_amp_tier</text>
    <circle cx="335" cy="126" r="3" fill="#8b5cf6"/>
    <text x="345" y="130">score_oncogenicity</text>
    <circle cx="335" cy="144" r="3" fill="#8b5cf6"/>
    <text x="345" y="148">variant_classify</text>
    <circle cx="335" cy="162" r="3" fill="#8b5cf6"/>
    <text x="345" y="166">explain_acmg_criteria</text>
    <circle cx="335" cy="180" r="3" fill="#8b5cf6"/>
    <text x="345" y="184">get_classification_frameworks_ref</text>
  </g>
  <rect x="335" y="199" width="42" height="14" rx="7" fill="#8b5cf6" fill-opacity="0.2"/>
  <text x="356" y="209" text-anchor="middle" font-family="'SF Mono',monospace" font-size="8" fill="#8b5cf6">5</text>

  <!-- Annotation (amber) -->
  <rect x="605" y="65" width="270" height="185" rx="10" fill="#1e293b" stroke="#f59e0b" stroke-width="1" filter="url(#toShadow)"/>
  <text x="740" y="88" text-anchor="middle" font-family="'SF Pro Display',sans-serif" font-size="12" font-weight="700" letter-spacing="1" fill="#fbbf24">ANNOTATION</text>
  <g font-family="'SF Mono',monospace" font-size="9.5" fill="#94a3b8">
    <circle cx="625" cy="108" r="3" fill="#f59e0b"/>
    <text x="635" y="112">predict_variant_effect</text>
    <circle cx="625" cy="126" r="3" fill="#f59e0b"/>
    <text x="635" y="130">lookup_gnomad_frequency</text>
    <circle cx="625" cy="144" r="3" fill="#f59e0b"/>
    <text x="635" y="148">lookup_protein_domains</text>
    <circle cx="625" cy="162" r="3" fill="#f59e0b"/>
    <text x="635" y="166">oncokb_annotate</text>
    <circle cx="625" cy="180" r="3" fill="#f59e0b"/>
    <text x="635" y="184">oncokb_cancer_genes</text>
    <circle cx="625" cy="198" r="3" fill="#f59e0b"/>
    <text x="635" y="202">normalize_variant</text>
  </g>
  <rect x="625" y="213" width="42" height="14" rx="7" fill="#f59e0b" fill-opacity="0.2"/>
  <text x="646" y="223" text-anchor="middle" font-family="'SF Mono',monospace" font-size="8" fill="#f59e0b">6</text>

  <!-- Data Retrieval (green) -->
  <rect x="25" y="270" width="270" height="185" rx="10" fill="#1e293b" stroke="#22c55e" stroke-width="1" filter="url(#toShadow)"/>
  <text x="160" y="293" text-anchor="middle" font-family="'SF Pro Display',sans-serif" font-size="12" font-weight="700" letter-spacing="1" fill="#86efac">DATA RETRIEVAL</text>
  <g font-family="'SF Mono',monospace" font-size="9.5" fill="#94a3b8">
    <circle cx="45" cy="313" r="3" fill="#22c55e"/>
    <text x="55" y="317">civic_get_gene</text>
    <circle cx="45" cy="331" r="3" fill="#22c55e"/>
    <text x="55" y="335">civic_get_variant</text>
    <circle cx="45" cy="349" r="3" fill="#22c55e"/>
    <text x="55" y="353">civic_get_evidence_item</text>
    <circle cx="45" cy="367" r="3" fill="#22c55e"/>
    <text x="55" y="371">clinvar_get_variant</text>
    <circle cx="45" cy="385" r="3" fill="#22c55e"/>
    <text x="55" y="389">get_publication</text>
  </g>
  <rect x="45" y="404" width="42" height="14" rx="7" fill="#22c55e" fill-opacity="0.2"/>
  <text x="66" y="414" text-anchor="middle" font-family="'SF Mono',monospace" font-size="8" fill="#22c55e">5</text>

  <!-- Discovery / Lookup (pink) -->
  <rect x="315" y="270" width="270" height="185" rx="10" fill="#1e293b" stroke="#ec4899" stroke-width="1" filter="url(#toShadow)"/>
  <text x="450" y="293" text-anchor="middle" font-family="'SF Pro Display',sans-serif" font-size="12" font-weight="700" letter-spacing="1" fill="#f9a8d4">DISCOVERY &amp; LOOKUP</text>
  <g font-family="'SF Mono',monospace" font-size="9.5" fill="#94a3b8">
    <circle cx="335" cy="313" r="3" fill="#ec4899"/>
    <text x="345" y="317">lookup_gene</text>
    <circle cx="335" cy="331" r="3" fill="#ec4899"/>
    <text x="345" y="335">lookup_disease</text>
    <circle cx="335" cy="349" r="3" fill="#ec4899"/>
    <text x="345" y="353">lookup_therapy</text>
  </g>
  <rect x="335" y="372" width="42" height="14" rx="7" fill="#ec4899" fill-opacity="0.2"/>
  <text x="356" y="382" text-anchor="middle" font-family="'SF Mono',monospace" font-size="8" fill="#ec4899">3</text>

  <!-- All tools support -->
  <rect x="605" y="270" width="270" height="185" rx="10" fill="#1e293b" stroke="#475569" stroke-width="1" filter="url(#toShadow)"/>
  <text x="740" y="293" text-anchor="middle" font-family="'SF Pro Display',sans-serif" font-size="12" font-weight="700" letter-spacing="1" fill="#94a3b8">ALL TOOLS SUPPORT</text>
  <g font-family="'SF Mono',monospace" font-size="10" fill="#94a3b8">
    <rect x="625" y="310" width="230" height="28" rx="6" fill="#06b6d4" fill-opacity="0.08" stroke="#06b6d4" stroke-width="0.5"/>
    <text x="740" y="328" text-anchor="middle" fill="#67e8f9">output_format="markdown"</text>

    <rect x="625" y="346" width="230" height="28" rx="6" fill="#22c55e" fill-opacity="0.08" stroke="#22c55e" stroke-width="0.5"/>
    <text x="740" y="364" text-anchor="middle" fill="#86efac">output_format="json"</text>

    <rect x="625" y="382" width="230" height="28" rx="6" fill="#f59e0b" fill-opacity="0.08" stroke="#f59e0b" stroke-width="0.5"/>
    <text x="740" y="400" text-anchor="middle" fill="#fcd34d">output_format="text"</text>
  </g>
  <text x="740" y="435" text-anchor="middle" font-family="'SF Mono',monospace" font-size="9" fill="#64748b">NLP disease/therapy normalization</text>
  <text x="740" y="448" text-anchor="middle" font-family="'SF Mono',monospace" font-size="9" fill="#64748b">35+ disease + 40+ therapy aliases</text>

  <!-- Footer -->
  <text x="450" y="472" text-anchor="middle" font-family="'SF Mono',monospace" font-size="9" fill="#475569">7 + 5 + 6 + 5 + 3 = 26 tools | All accessible via natural language prompts</text>
</svg>
