<svg xmlns="http://www.w3.org/2000/svg" viewBox="0 0 960 560" width="960" height="560">
  <defs>
    <filter id="tSh">
      <feDropShadow dx="0" dy="2" stdDeviation="6" flood-color="#94a3b8" flood-opacity="0.12"/>
    </filter>
  </defs>

  <rect width="960" height="560" rx="16" fill="#f8fafc"/>
  <text x="480" y="32" text-anchor="middle" font-family="'SF Pro Display','Inter',sans-serif" font-size="18" font-weight="800" letter-spacing="1" fill="#0f172a">29 MCP Tools</text>
  <rect x="380" y="40" width="200" height="2" rx="1" fill="#0ea5e9" opacity="0.25"/>

  <!-- Search & Discovery -->
  <rect x="20" y="58" width="290" height="190" rx="14" fill="#fff" stroke="#0ea5e9" stroke-width="0.8" filter="url(#tSh)"/>
  <text x="165" y="80" text-anchor="middle" font-family="'SF Pro Display','Inter',sans-serif" font-size="12" font-weight="700" fill="#0ea5e9">SEARCH &amp; DISCOVERY</text>
  <g font-family="'SF Mono',monospace" font-size="10" fill="#475569">
    <circle cx="40" cy="98" r="3" fill="#0ea5e9"/><text x="50" y="102">variant_search_evidence</text>
    <circle cx="40" cy="116" r="3" fill="#0ea5e9"/><text x="50" y="120">civic_search_evidence</text>
    <circle cx="40" cy="134" r="3" fill="#0ea5e9"/><text x="50" y="138">civic_search_assertions</text>
    <circle cx="40" cy="152" r="3" fill="#0ea5e9"/><text x="50" y="156">clinvar_search</text>
    <circle cx="40" cy="170" r="3" fill="#0ea5e9"/><text x="50" y="174">search_literature</text>
    <circle cx="40" cy="188" r="3" fill="#0ea5e9"/><text x="50" y="192">variant_compare_sources</text>
    <circle cx="40" cy="206" r="3" fill="#0ea5e9"/><text x="50" y="210">variant_pathogenicity_summary</text>
  </g>
  <rect x="250" y="228" width="38" height="14" rx="7" fill="#0ea5e9" fill-opacity="0.1"/>
  <text x="269" y="238" text-anchor="middle" font-family="'SF Mono',monospace" font-size="9" font-weight="600" fill="#0ea5e9">7</text>

  <!-- Classification -->
  <rect x="330" y="58" width="290" height="190" rx="14" fill="#fff" stroke="#8b5cf6" stroke-width="0.8" filter="url(#tSh)"/>
  <text x="475" y="80" text-anchor="middle" font-family="'SF Pro Display','Inter',sans-serif" font-size="12" font-weight="700" fill="#7c3aed">CLASSIFICATION</text>
  <g font-family="'SF Mono',monospace" font-size="10" fill="#475569">
    <circle cx="350" cy="98" r="3" fill="#8b5cf6"/><text x="360" y="102">classify_amp_tier</text>
    <circle cx="350" cy="116" r="3" fill="#8b5cf6"/><text x="360" y="120">score_oncogenicity</text>
    <circle cx="350" cy="134" r="3" fill="#8b5cf6"/><text x="360" y="138">variant_classify</text>
    <circle cx="350" cy="152" r="3" fill="#8b5cf6"/><text x="360" y="156">explain_acmg_criteria</text>
    <circle cx="350" cy="170" r="3" fill="#8b5cf6"/><text x="360" y="174">get_classification_frameworks_ref</text>
  </g>
  <rect x="560" y="192" width="38" height="14" rx="7" fill="#8b5cf6" fill-opacity="0.1"/>
  <text x="579" y="202" text-anchor="middle" font-family="'SF Mono',monospace" font-size="9" font-weight="600" fill="#8b5cf6">5</text>

  <!-- Annotation -->
  <rect x="640" y="58" width="300" height="190" rx="14" fill="#fff" stroke="#f59e0b" stroke-width="0.8" filter="url(#tSh)"/>
  <text x="790" y="80" text-anchor="middle" font-family="'SF Pro Display','Inter',sans-serif" font-size="12" font-weight="700" fill="#d97706">ANNOTATION</text>
  <g font-family="'SF Mono',monospace" font-size="10" fill="#475569">
    <circle cx="660" cy="98" r="3" fill="#f59e0b"/><text x="670" y="102">predict_variant_effect</text>
    <circle cx="660" cy="116" r="3" fill="#f59e0b"/><text x="670" y="120">lookup_gnomad_frequency</text>
    <circle cx="660" cy="134" r="3" fill="#f59e0b"/><text x="670" y="138">lookup_protein_domains</text>
    <circle cx="660" cy="152" r="3" fill="#f59e0b"/><text x="670" y="156">oncokb_annotate</text>
    <circle cx="660" cy="170" r="3" fill="#f59e0b"/><text x="670" y="174">oncokb_cancer_genes</text>
    <circle cx="660" cy="188" r="3" fill="#f59e0b"/><text x="670" y="192">normalize_variant</text>
  </g>
  <rect x="882" y="210" width="38" height="14" rx="7" fill="#f59e0b" fill-opacity="0.1"/>
  <text x="901" y="220" text-anchor="middle" font-family="'SF Mono',monospace" font-size="9" font-weight="600" fill="#d97706">6</text>

  <!-- Data Retrieval -->
  <rect x="20" y="268" width="220" height="160" rx="14" fill="#fff" stroke="#22c55e" stroke-width="0.8" filter="url(#tSh)"/>
  <text x="130" y="290" text-anchor="middle" font-family="'SF Pro Display','Inter',sans-serif" font-size="12" font-weight="700" fill="#16a34a">DATA RETRIEVAL</text>
  <g font-family="'SF Mono',monospace" font-size="10" fill="#475569">
    <circle cx="40" cy="308" r="3" fill="#22c55e"/><text x="50" y="312">civic_get_gene</text>
    <circle cx="40" cy="326" r="3" fill="#22c55e"/><text x="50" y="330">civic_get_variant</text>
    <circle cx="40" cy="344" r="3" fill="#22c55e"/><text x="50" y="348">civic_get_evidence_item</text>
    <circle cx="40" cy="362" r="3" fill="#22c55e"/><text x="50" y="366">clinvar_get_variant</text>
    <circle cx="40" cy="380" r="3" fill="#22c55e"/><text x="50" y="384">get_publication</text>
  </g>
  <rect x="182" y="396" width="38" height="14" rx="7" fill="#22c55e" fill-opacity="0.1"/>
  <text x="201" y="406" text-anchor="middle" font-family="'SF Mono',monospace" font-size="9" font-weight="600" fill="#16a34a">5</text>

  <!-- Driver & Hotspots -->
  <rect x="260" y="268" width="250" height="160" rx="14" fill="#fff" stroke="#ef4444" stroke-width="0.8" filter="url(#tSh)"/>
  <text x="385" y="290" text-anchor="middle" font-family="'SF Pro Display','Inter',sans-serif" font-size="12" font-weight="700" fill="#dc2626">DRIVER &amp; HOTSPOTS</text>
  <g font-family="'SF Mono',monospace" font-size="10" fill="#475569">
    <circle cx="280" cy="308" r="3" fill="#ef4444"/><text x="290" y="312">assess_driver_mutation</text>
    <circle cx="280" cy="326" r="3" fill="#ef4444"/><text x="290" y="330">lookup_cancer_hotspots</text>
    <circle cx="280" cy="344" r="3" fill="#ef4444"/><text x="290" y="348">search_variant_literature_litvar</text>
  </g>
  <rect x="452" y="358" width="38" height="14" rx="7" fill="#ef4444" fill-opacity="0.1"/>
  <text x="471" y="368" text-anchor="middle" font-family="'SF Mono',monospace" font-size="9" font-weight="600" fill="#dc2626">3</text>
  <text x="280" y="388" font-family="'SF Mono',monospace" font-size="8.5" fill="#94a3b8">Cancer Hotspots + LitVar2 + 7-signal</text>
  <text x="280" y="402" font-family="'SF Mono',monospace" font-size="8.5" fill="#94a3b8">cross-ref driver classification</text>

  <!-- Discovery & Format -->
  <rect x="530" y="268" width="200" height="160" rx="14" fill="#fff" stroke="#ec4899" stroke-width="0.8" filter="url(#tSh)"/>
  <text x="630" y="290" text-anchor="middle" font-family="'SF Pro Display','Inter',sans-serif" font-size="12" font-weight="700" fill="#db2777">DISCOVERY</text>
  <g font-family="'SF Mono',monospace" font-size="10" fill="#475569">
    <circle cx="550" cy="308" r="3" fill="#ec4899"/><text x="560" y="312">lookup_gene</text>
    <circle cx="550" cy="326" r="3" fill="#ec4899"/><text x="560" y="330">lookup_disease</text>
    <circle cx="550" cy="344" r="3" fill="#ec4899"/><text x="560" y="348">lookup_therapy</text>
  </g>
  <rect x="672" y="358" width="38" height="14" rx="7" fill="#ec4899" fill-opacity="0.1"/>
  <text x="691" y="368" text-anchor="middle" font-family="'SF Mono',monospace" font-size="9" font-weight="600" fill="#db2777">3</text>

  <!-- Output format note -->
  <rect x="750" y="268" width="190" height="160" rx="14" fill="#fff" stroke="#64748b" stroke-width="0.6" filter="url(#tSh)"/>
  <text x="845" y="292" text-anchor="middle" font-family="'SF Pro Display','Inter',sans-serif" font-size="11" font-weight="700" fill="#475569">OUTPUT FORMATS</text>
  <g font-family="'SF Mono',monospace" font-size="9.5">
    <rect x="770" y="308" width="150" height="22" rx="6" fill="#0ea5e9" fill-opacity="0.06" stroke="#0ea5e9" stroke-width="0.4"/>
    <text x="845" y="323" text-anchor="middle" fill="#0ea5e9">markdown (default)</text>
    <rect x="770" y="338" width="150" height="22" rx="6" fill="#22c55e" fill-opacity="0.06" stroke="#22c55e" stroke-width="0.4"/>
    <text x="845" y="353" text-anchor="middle" fill="#16a34a">json (structured)</text>
    <rect x="770" y="368" width="150" height="22" rx="6" fill="#f59e0b" fill-opacity="0.06" stroke="#f59e0b" stroke-width="0.4"/>
    <text x="845" y="383" text-anchor="middle" fill="#d97706">text (plain)</text>
  </g>
  <text x="845" y="414" text-anchor="middle" font-family="'SF Mono',monospace" font-size="8.5" fill="#94a3b8">All 29 tools support</text>
  <text x="845" y="426" text-anchor="middle" font-family="'SF Mono',monospace" font-size="8.5" fill="#94a3b8">all 3 output formats</text>

  <!-- Footer -->
  <text x="480" y="460" text-anchor="middle" font-family="'SF Mono',monospace" font-size="10" fill="#475569" font-weight="600">7 + 5 + 6 + 5 + 3 + 3 = 29 tools</text>
  <text x="480" y="478" text-anchor="middle" font-family="'SF Mono',monospace" font-size="9" fill="#94a3b8">10 data sources | 4 classification frameworks | Driver mutation cross-reference</text>
  <text x="480" y="494" text-anchor="middle" font-family="'SF Mono',monospace" font-size="9" fill="#94a3b8">NLP: 35+ disease + 40+ therapy aliases | GRCh37/38 aware</text>

  <text x="480" y="550" text-anchor="middle" font-family="'SF Mono',monospace" font-size="8.5" fill="#cbd5e1">CAPVIC v1.0.6 — Vivax Teknoloji A.S.</text>
</svg>
